<?xml version="1.0" standalone="no"?>
<!DOCTYPE svg PUBLIC "-//W3C//DTD SVG 20010904//EN"
 "http://www.w3.org/TR/2001/REC-SVG-20010904/DTD/svg10.dtd">
<svg version="1.0" xmlns="http://www.w3.org/2000/svg"
 width="208.000000pt" height="69.000000pt" viewBox="0 0 208.000000 69.000000"
 preserveAspectRatio="xMidYMid meet">

<g transform="translate(0.000000,69.000000) scale(0.100000,-0.100000)"
fill="#000000" stroke="none">
<path d="M463 504 c-13 -14 -23 -27 -23 -29 0 -2 12 -16 26 -30 l25 -25 29 28
28 29 -28 26 c-16 15 -30 27 -32 27 -1 0 -13 -12 -25 -26z"/>
<path d="M1544 485 c-4 -9 -2 -21 4 -27 15 -15 44 -1 40 19 -4 23 -36 29 -44
8z"/>
<path d="M310 472 c0 -15 -91 -102 -106 -102 -8 0 -14 -4 -14 -10 0 -5 4 -10
8 -10 15 0 81 -69 98 -102 l17 -33 16 25 c33 50 64 80 97 96 l35 17 -38 25
c-40 27 -93 80 -93 94 0 4 -4 8 -10 8 -5 0 -10 -4 -10 -8z"/>
<path d="M650 460 c0 -5 6 -10 14 -10 20 0 26 -23 26 -100 0 -77 -6 -100 -26
-100 -8 0 -14 -4 -14 -10 0 -5 25 -10 55 -10 53 0 72 11 40 24 -12 4 -15 25
-15 96 0 71 3 92 15 96 32 13 13 24 -40 24 -30 0 -55 -4 -55 -10z"/>
<path d="M1465 420 c-4 -6 -21 -8 -41 -4 -46 9 -84 -16 -84 -55 0 -16 7 -34
15 -41 14 -12 14 -15 -2 -32 -13 -14 -14 -21 -5 -30 16 -16 15 -28 -2 -28 -8
0 -18 -10 -22 -22 -15 -48 73 -76 135 -43 32 16 45 49 30 76 -10 19 -29 26
-82 31 -37 4 -36 21 2 29 50 10 64 28 58 71 -5 39 0 47 21 26 9 -9 12 -7 12
10 0 23 -24 30 -35 12z m-40 -60 c0 -28 -4 -35 -20 -35 -13 0 -21 8 -23 23 -5
34 5 54 25 50 13 -2 18 -13 18 -38z m31 -145 c10 -26 -16 -46 -55 -43 -38 3
-56 33 -29 49 22 15 78 10 84 -6z"/>
<path d="M790 411 c0 -5 7 -11 15 -15 11 -4 15 -22 15 -71 0 -49 -4 -67 -15
-71 -31 -12 -13 -24 35 -24 48 0 66 12 35 24 -10 4 -15 20 -15 54 0 55 19 89
44 79 13 -5 16 -21 16 -82 l0 -75 35 0 c19 0 35 5 35 10 0 6 -4 10 -10 10 -12
0 -13 110 -1 128 5 8 17 12 27 10 16 -3 19 -14 22 -81 l3 -77 34 0 c19 0 35 5
35 10 0 6 -4 10 -10 10 -6 0 -10 28 -10 63 0 72 -18 107 -55 107 -13 0 -31 -7
-39 -16 -15 -14 -17 -14 -32 0 -20 21 -53 20 -76 -1 -17 -15 -18 -15 -18 0 0
13 -9 17 -35 17 -19 0 -35 -4 -35 -9z"/>
<path d="M1168 409 c-24 -13 -23 -35 1 -42 13 -3 21 1 24 14 7 26 33 24 41 -3
9 -35 8 -38 -18 -38 -67 0 -101 -41 -72 -85 19 -28 43 -32 72 -10 18 14 18 15
-6 12 -22 -2 -25 2 -25 28 0 26 4 30 29 33 26 3 28 1 23 -20 -11 -42 2 -68 34
-68 16 0 29 5 29 10 0 6 -4 10 -10 10 -6 0 -10 30 -10 69 0 61 -3 72 -22 85
-26 18 -65 20 -90 5z"/>
<path d="M1520 411 c0 -5 7 -11 15 -15 11 -4 15 -22 15 -71 0 -49 -4 -67 -15
-71 -31 -12 -13 -24 35 -24 48 0 66 12 35 24 -12 4 -15 24 -15 86 l0 80 -35 0
c-19 0 -35 -4 -35 -9z"/>
<path d="M1640 410 c0 -5 6 -10 13 -10 6 0 24 -18 40 -40 l27 -39 -40 -42
c-22 -23 -40 -44 -40 -46 0 -1 19 -3 41 -3 36 0 40 2 29 15 -10 12 -10 21 -1
42 11 25 12 25 31 8 21 -19 27 -45 10 -45 -5 0 -10 -4 -10 -10 0 -5 23 -10 50
-10 28 0 50 5 50 10 0 6 -4 10 -8 10 -5 0 -23 20 -40 44 l-31 43 34 38 c19 21
35 39 35 41 0 2 -16 4 -35 4 -33 0 -48 -14 -24 -22 9 -3 9 -10 -1 -27 l-12
-23 -22 22 c-15 16 -17 24 -8 27 28 11 8 23 -38 23 -27 0 -50 -4 -50 -10z"/>
<path d="M456 261 l-27 -28 30 -31 31 -30 30 30 c17 16 30 32 30 34 0 6 -53
53 -61 54 -3 0 -18 -13 -33 -29z"/>
</g>
</svg>
